<?xml version="1.0" standalone="no"?>
<!DOCTYPE svg PUBLIC "-//W3C//DTD SVG 20010904//EN"
 "http://www.w3.org/TR/2001/REC-SVG-20010904/DTD/svg10.dtd">
<svg version="1.0" xmlns="http://www.w3.org/2000/svg"
 width="405.000000pt" height="405.000000pt" viewBox="0 0 405.000000 405.000000"
 preserveAspectRatio="xMidYMid meet">
<metadata>
Created by potrace 1.14, written by Peter Selinger 2001-2017
</metadata>
<g transform="translate(0.000000,405.000000) scale(0.100000,-0.100000)"
fill="#000000" stroke="none">
<path d="M1884 4010 c-3 -2 -19 -5 -37 -6 -53 -3 -162 -19 -162 -24 0 -1 -18
-3 -40 -5 -22 -2 -64 -10 -92 -18 -29 -8 -53 -13 -53 -10 0 3 -6 1 -12 -5 -7
-5 -29 -13 -48 -17 -19 -4 -39 -10 -45 -13 -5 -4 -16 -7 -24 -9 -7 -1 -37 -11
-65 -23 -126 -54 -142 -61 -161 -72 -11 -6 -47 -26 -80 -43 -75 -39 -164 -94
-188 -116 -18 -16 -20 -16 -40 4 -13 13 -22 17 -25 9 -2 -7 -8 -12 -13 -12 -6
0 -8 4 -4 9 3 6 -4 9 -15 8 -23 -1 -25 -8 -8 -25 9 -9 9 -12 -2 -12 -7 0 -11
-3 -7 -6 3 -4 -1 -13 -9 -21 -8 -8 -11 -19 -8 -25 4 -7 2 -8 -5 -4 -6 4 -17 3
-24 -2 -20 -17 -23 -17 -40 -3 -14 11 -17 11 -17 0 0 -11 -2 -12 -9 -1 -5 9
-17 11 -34 7 -24 -6 -25 -9 -11 -22 10 -11 12 -19 4 -27 -5 -7 -6 -17 -2 -21
4 -5 2 -5 -5 -2 -6 4 -13 2 -15 -4 -2 -7 -18 -12 -36 -13 -18 0 -32 -5 -32
-11 0 -6 -4 -5 -8 1 -5 8 -15 8 -32 2 -24 -10 -24 -11 -5 -18 13 -6 15 -9 5
-9 -13 -1 -13 -3 0 -10 8 -6 19 -7 25 -5 5 3 2 -1 -7 -9 -10 -8 -15 -17 -11
-20 3 -4 -4 -4 -16 -2 -12 2 -19 0 -16 -5 3 -4 -1 -11 -7 -13 -8 -3 -6 -6 5
-6 10 -1 16 -5 13 -10 -3 -5 1 -12 10 -15 12 -5 14 -10 5 -20 -6 -7 -8 -15 -6
-18 3 -3 -5 -3 -18 -1 -14 3 -28 -1 -32 -8 -6 -8 -4 -10 5 -4 10 6 12 4 7 -8
-4 -10 -1 -17 6 -17 8 0 6 -4 -3 -10 -13 -9 -13 -10 0 -10 9 0 11 -3 4 -8 -5
-4 -16 -22 -23 -39 -8 -18 -17 -33 -22 -33 -5 0 -9 -5 -9 -11 0 -6 -14 -30
-30 -54 -17 -24 -30 -48 -30 -54 0 -6 -4 -11 -9 -11 -5 0 -13 -10 -17 -22 -4
-13 -9 -25 -13 -28 -14 -11 -95 -189 -91 -199 1 -2 -3 -7 -9 -11 -6 -3 -13
-17 -16 -29 -2 -13 -9 -28 -14 -35 -5 -6 -10 -15 -11 -21 -3 -29 -14 -62 -24
-74 -6 -8 -10 -16 -8 -18 4 -4 -8 -65 -16 -78 -3 -5 -7 -21 -9 -35 -4 -29 -11
-65 -13 -65 -2 0 -9 -36 -15 -80 -2 -22 -7 -51 -10 -65 -3 -14 -7 -55 -10 -93
-2 -37 -7 -72 -10 -77 -3 -6 0 -10 7 -10 9 0 9 -3 2 -8 -10 -7 -10 -78 0 -227
4 -65 9 -105 22 -180 3 -16 7 -39 9 -50 2 -11 4 -20 5 -20 1 0 3 -7 13 -60 6
-34 18 -79 25 -95 3 -8 7 -19 7 -25 1 -5 4 -17 7 -25 3 -8 14 -37 23 -65 10
-27 22 -54 26 -59 5 -6 9 -18 9 -28 0 -10 5 -18 10 -18 6 0 9 -4 8 -8 -4 -12
25 -82 34 -82 4 0 8 -7 8 -15 0 -15 19 -54 31 -65 3 -3 11 -19 18 -36 7 -18
20 -40 29 -50 9 -11 24 -32 32 -49 28 -54 209 -275 274 -334 16 -14 38 -35 50
-46 12 -11 44 -38 71 -60 28 -22 61 -50 74 -62 13 -13 30 -23 38 -23 8 0 12
-3 9 -8 -2 -4 27 -25 65 -45 38 -21 69 -42 69 -48 0 -5 6 -9 14 -9 17 0 78
-31 88 -45 4 -5 8 -6 8 -1 0 5 9 1 19 -8 11 -10 25 -18 33 -20 7 -1 40 -14 73
-30 33 -15 83 -34 110 -43 28 -9 56 -21 64 -27 12 -9 13 -8 6 3 -5 9 8 5 30
-9 21 -13 36 -19 32 -13 -4 6 10 5 34 -4 23 -7 55 -16 73 -19 50 -8 71 -12 71
-14 0 -2 25 -6 90 -13 17 -1 35 -5 40 -8 6 -3 31 -5 58 -4 26 0 47 -2 47 -5 0
-3 11 -5 25 -5 14 0 25 4 25 8 0 5 6 5 13 0 17 -11 140 -11 155 0 8 6 12 5 12
-2 0 -7 5 -9 11 -5 7 4 33 8 58 10 25 2 66 6 91 9 25 4 56 7 70 8 14 0 28 5
31 10 4 6 14 -4 23 -21 19 -37 20 -45 4 -37 -7 4 -4 -1 6 -9 29 -23 138 -22
158 2 9 9 14 25 13 35 -2 9 2 17 8 17 8 0 8 3 2 8 -5 4 -11 17 -11 29 -1 19 9
26 70 45 39 12 74 26 77 31 3 5 8 8 10 7 11 -4 163 61 167 72 2 4 10 8 17 8 8
0 31 11 51 25 20 14 40 23 44 20 4 -3 10 2 14 10 3 8 10 15 16 15 11 0 86 47
108 67 7 7 16 13 20 13 4 0 23 15 42 33 20 17 38 32 40 32 5 0 41 31 109 93
78 71 100 92 95 92 -3 0 5 11 18 23 42 44 89 97 84 97 -3 0 5 11 17 24 12 13
31 35 42 50 11 14 26 33 33 41 7 8 10 15 6 15 -4 0 2 10 13 23 11 12 23 29 27
37 3 8 16 31 27 50 37 61 59 104 59 117 0 6 3 13 8 15 4 2 18 28 31 58 13 30
32 73 41 95 15 33 57 163 66 200 1 6 5 22 8 37 10 48 16 72 22 98 12 54 18
102 30 225 8 80 10 266 4 270 -3 2 -5 26 -4 54 0 28 -2 51 -6 51 -3 0 -6 15
-7 33 -1 42 -11 117 -20 142 -4 11 -8 28 -9 38 -1 9 -2 18 -4 20 -2 2 -5 15
-13 57 -3 14 -10 37 -16 53 -6 15 -8 27 -5 27 4 0 2 6 -3 13 -6 6 -13 25 -17
42 -4 16 -18 52 -30 80 -13 27 -29 67 -37 88 -7 20 -17 37 -22 37 -4 0 -5 5
-2 10 3 6 1 10 -4 10 -6 0 -10 3 -9 8 2 10 -35 86 -44 90 -5 2 -8 8 -8 13 0 6
-18 36 -39 69 -22 32 -42 68 -46 79 -3 12 -13 28 -21 36 -14 13 -14 15 0 15
13 0 19 9 15 23 0 1 4 14 10 29 6 15 6 30 2 33 -5 3 -7 14 -4 25 4 14 0 20
-11 20 -10 0 -15 4 -12 8 2 4 -12 9 -32 10 -20 2 -40 8 -44 15 -6 9 -8 8 -8
-2 0 -9 -7 -6 -20 9 -13 15 -20 18 -20 9 0 -9 -3 -10 -8 -4 -4 6 -14 10 -22
10 -8 0 -32 15 -52 35 -20 19 -58 53 -84 75 -25 22 -57 50 -70 62 -13 12 -24
20 -24 18 0 -3 -10 4 -22 14 -13 11 -34 29 -48 41 -13 12 -46 33 -72 47 -26
14 -48 31 -48 36 0 6 -3 7 -6 4 -4 -4 -21 4 -38 16 -17 12 -33 22 -36 23 -3 0
-52 23 -110 51 -145 69 -178 83 -195 83 -8 0 -15 4 -15 10 0 5 -6 7 -13 4 -8
-3 -35 4 -62 16 -26 11 -50 18 -52 16 -3 -3 -15 -1 -27 4 -13 4 -40 11 -60 14
-21 4 -42 9 -47 12 -5 3 -26 7 -46 9 -129 14 -193 24 -203 30 -5 3 -11 1 -15
-5 -4 -6 -12 -7 -18 -3 -13 8 -236 11 -243 3z"/>
</g>
</svg>
